<svg width="80" height="80" viewBox="0 0 80 80" fill="none" xmlns="http://www.w3.org/2000/svg">
  <rect x="1.08" y="1.08" width="78.92" height="78.92" rx="15.135" fill="#dcc4b0" stroke="#181510" stroke-width="0.27"/>
  <rect x="0" y="0" width="76.76" height="76.76" rx="15.135" fill="#fdf8f2" stroke="#181510" stroke-width="0.27"/>
  <rect x="13" y="14" width="51" height="49" rx="4.5" fill="#c9bfb2" stroke="#181510" stroke-width="0.4"/>
  <rect x="16" y="17" width="45" height="43" rx="2.5" fill="#fdf8f2" stroke="#181510" stroke-width="0.4"/>
  <line x1="22" y1="22" x2="22" y2="54" stroke="#181510" stroke-width="0.8" stroke-linecap="round"/>
  <line x1="22" y1="54" x2="56" y2="54" stroke="#181510" stroke-width="0.8" stroke-linecap="round"/>
  <rect x="26" y="42" width="6" height="12" rx="1" fill="#c9bfb2" stroke="#181510" stroke-width="0.4"/>
  <rect x="35" y="34" width="6" height="20" rx="1" fill="#c9bfb2" stroke="#181510" stroke-width="0.4"/>
  <rect x="44" y="27" width="6" height="27" rx="1" fill="#c9bfb2" stroke="#181510" stroke-width="0.4"/>
  <polyline points="29,40 38,32 47,25" stroke="#181510" stroke-width="1" stroke-linecap="round" stroke-linejoin="round" fill="none"/>
  <circle cx="29" cy="40" r="1.5" fill="#c9bfb2" stroke="#181510" stroke-width="0.4"/>
  <circle cx="38" cy="32" r="1.5" fill="#c9bfb2" stroke="#181510" stroke-width="0.4"/>
  <circle cx="47" cy="25" r="1.5" fill="#c9bfb2" stroke="#181510" stroke-width="0.4"/>
</svg>
